<svg id="svg" version="1.1"
    xmlns="http://www.w3.org/2000/svg"
    xmlns:xlink="http://www.w3.org/1999/xlink" width="400" height="229.88505747126436" viewBox="0, 0, 400,229.88505747126436">
    <g id="svgg">
        <path id="path0" d="M188.379 25.189 C 185.534 29.226,185.525 29.230,178.513 29.839 C 174.653 30.173,170.181 30.672,168.575 30.945 C 165.927 31.397,165.629 31.207,165.357 28.896 C 164.926 25.235,162.865 24.983,162.161 28.506 C 161.482 31.902,160.455 32.423,150.345 34.504 C 133.195 38.033,130.575 38.771,130.575 40.074 C 130.575 41.950,133.214 41.728,147.159 38.681 C 153.951 37.198,159.629 36.104,159.777 36.252 C 159.925 36.400,158.818 41.999,157.319 48.694 C 152.313 71.044,148.594 93.789,149.754 94.950 C 151.657 96.853,152.478 94.500,154.875 80.272 C 157.170 66.648,160.669 49.277,162.989 40.000 L 164.138 35.402 173.158 34.154 C 184.113 32.638,183.713 32.258,179.899 40.555 C 169.525 63.122,164.707 90.115,171.053 90.115 C 172.227 90.115,174.241 87.231,177.916 80.287 C 187.108 62.920,189.425 60.543,189.425 68.485 C 189.425 75.685,192.123 77.538,197.909 74.313 L 201.839 72.122 201.989 75.804 C 202.300 83.408,208.526 84.574,217.471 78.705 C 223.482 74.761,232.644 66.358,232.644 64.790 C 232.644 61.837,230.364 62.772,224.580 68.095 C 211.981 79.691,205.057 81.788,205.057 74.006 C 205.057 73.810,206.861 72.852,209.065 71.876 C 215.182 69.171,220.229 61.397,218.045 58.046 C 216.045 54.978,208.971 57.609,206.189 62.457 C 204.576 65.267,196.338 71.724,194.366 71.724 C 193.438 71.724,193.103 70.284,193.103 66.282 C 193.103 52.292,186.733 55.725,176.177 75.402 C 171.690 83.768,171.462 83.704,172.900 74.483 C 174.447 64.566,177.241 56.634,182.191 48.102 C 184.776 43.646,187.641 38.272,188.557 36.159 C 189.869 33.133,190.770 32.255,192.804 32.021 C 195.960 31.658,197.084 28.506,194.058 28.506 C 192.426 28.506,192.270 28.224,193.071 26.727 C 196.307 20.680,192.449 19.415,188.379 25.189 M214.253 61.909 C 214.253 63.060,212.340 65.065,208.355 68.090 C 206.683 69.359,206.654 69.311,207.780 67.126 C 210.231 62.372,214.253 59.130,214.253 61.909 M72.644 96.552 C 72.644 97.982,73.257 98.391,75.402 98.391 L 78.161 98.391 78.161 122.575 C 78.161 147.660,77.970 148.966,74.299 148.966 C 73.389 148.966,72.644 149.586,72.644 150.345 C 72.644 151.488,74.389 151.724,82.835 151.724 C 92.730 151.724,97.277 149.920,89.354 149.137 L 86.437 148.849 86.442 139.482 C 86.450 124.724,89.293 118.621,96.159 118.621 C 101.976 118.621,103.079 121.519,102.784 136.018 L 102.529 148.506 100.000 148.797 C 98.553 148.963,97.471 149.651,97.471 150.406 C 97.471 151.471,99.427 151.724,107.663 151.724 C 117.557 151.724,122.105 149.920,114.182 149.137 L 111.264 148.849 111.264 135.250 C 111.264 122.616,111.116 121.430,109.165 118.527 C 104.823 112.062,95.086 111.669,89.042 117.713 L 86.437 120.318 86.437 107.515 L 86.437 94.713 79.540 94.713 C 73.257 94.713,72.644 94.876,72.644 96.552 M268.506 98.391 C 264.709 102.187,267.297 107.586,272.914 107.586 C 274.824 107.586,276.119 106.986,276.749 105.808 C 280.086 99.572,273.368 93.528,268.506 98.391 M38.233 99.696 C 23.044 105.363,25.034 118.938,42.318 127.572 C 56.283 134.547,59.868 139.569,55.158 145.557 C 48.009 154.645,34.620 149.095,31.773 135.862 C 31.402 134.138,30.650 133.333,29.408 133.333 C 27.708 133.333,27.586 133.977,27.586 142.989 C 27.586 152.410,29.445 156.742,30.976 150.888 C 31.427 149.163,31.504 149.163,35.258 150.868 C 44.726 155.167,59.374 152.349,64.138 145.313 C 69.943 136.739,65.910 129.098,51.944 122.208 C 37.186 114.928,33.989 109.954,40.530 104.450 C 46.894 99.095,57.165 102.369,59.770 110.583 C 62.254 118.415,64.368 116.614,64.368 106.667 C 64.368 98.334,63.850 97.201,61.237 99.814 C 60.099 100.951,59.416 101.025,57.836 100.179 C 54.614 98.455,42.367 98.153,38.233 99.696 M365.520 111.658 C 362.642 114.710,362.424 114.779,358.673 113.827 C 348.455 111.233,338.391 117.780,338.391 127.021 C 338.391 131.644,341.083 137.931,343.064 137.931 C 344.653 137.931,343.910 139.333,341.839 140.242 C 340.693 140.745,339.378 142.482,338.890 144.138 C 338.020 147.095,337.950 147.126,332.293 147.126 L 326.576 147.126 326.276 134.317 C 325.816 114.620,316.259 106.868,304.818 116.913 L 301.739 119.617 301.444 117.050 C 301.044 113.561,286.897 112.368,286.897 115.823 C 286.897 117.356,287.487 117.701,290.115 117.701 L 293.333 117.701 293.333 132.230 C 293.333 147.614,292.984 148.966,289.011 148.966 C 287.745 148.966,286.897 149.519,286.897 150.345 C 286.897 151.488,288.642 151.724,297.088 151.724 C 306.780 151.724,311.415 150.004,304.067 149.134 L 301.609 148.843 301.609 138.300 C 301.609 123.632,304.103 118.621,311.402 118.621 C 316.938 118.621,318.161 121.606,318.161 135.113 C 318.161 147.132,317.650 148.966,314.299 148.966 C 313.389 148.966,312.644 149.586,312.644 150.345 C 312.644 151.474,314.229 151.724,321.396 151.724 L 330.148 151.724 329.901 174.023 L 329.655 196.322 327.126 196.613 C 325.679 196.779,324.598 197.467,324.598 198.222 C 324.598 199.286,326.539 199.540,334.684 199.540 C 343.271 199.540,344.691 199.335,344.241 198.161 C 343.939 197.375,342.567 196.782,341.051 196.782 L 338.391 196.782 338.391 173.129 C 338.391 151.065,338.491 149.619,339.880 151.602 C 341.069 153.300,341.162 154.184,340.340 155.988 C 336.884 163.572,342.740 168.414,355.311 168.368 C 377.352 168.286,382.662 148.296,360.735 147.946 C 348.322 147.748,343.448 146.869,343.448 144.828 C 343.448 143.164,344.239 142.937,351.724 142.454 C 367.668 141.424,375.599 130.788,368.345 120.167 C 365.153 115.493,366.848 113.174,371.385 116.007 C 373.970 117.621,376.092 116.340,376.092 113.165 C 376.092 107.773,370.003 106.905,365.520 111.658 M135.054 114.542 C 126.785 117.088,121.506 126.001,122.630 135.519 C 125.456 159.461,159.686 158.310,160.781 134.236 C 161.489 118.662,150.068 109.919,135.054 114.542 M188.796 114.117 C 187.185 114.583,184.625 116.206,183.108 117.724 L 180.348 120.483 180.059 117.483 L 179.770 114.483 172.644 114.214 C 165.994 113.964,165.517 114.071,165.517 115.823 C 165.517 117.356,166.108 117.701,168.736 117.701 L 171.954 117.701 171.954 140.506 C 171.954 164.636,171.802 165.517,167.632 165.517 C 166.365 165.517,165.517 166.070,165.517 166.897 C 165.517 168.050,167.416 168.276,177.088 168.276 C 188.590 168.276,193.658 166.401,184.066 165.694 L 180.230 165.411 180.230 157.648 C 180.230 149.403,180.335 149.222,183.908 151.264 C 195.037 157.626,208.028 148.220,208.559 133.414 C 209.095 118.490,201.000 110.585,188.796 114.117 M236.645 114.108 C 235.053 114.569,232.467 116.408,230.898 118.195 L 228.046 121.443 228.046 117.733 L 228.046 114.023 221.149 114.023 C 214.866 114.023,214.253 114.186,214.253 115.862 C 214.253 117.292,214.866 117.701,217.011 117.701 L 219.770 117.701 219.770 140.506 C 219.770 164.150,219.559 165.517,215.908 165.517 C 214.998 165.517,214.253 166.138,214.253 166.897 C 214.253 168.039,215.992 168.276,224.391 168.276 L 234.530 168.276 233.127 170.989 C 230.510 176.050,231.460 181.807,235.677 186.437 C 237.264 188.179,237.327 188.506,236.074 188.506 C 232.389 188.506,230.487 195.526,233.144 199.320 C 234.209 200.839,234.324 201.797,233.604 203.142 C 230.069 209.748,236.161 215.178,247.097 215.167 C 269.542 215.146,272.767 196.640,250.426 196.066 C 237.940 195.745,236.322 195.403,236.322 193.086 C 236.322 192.084,236.839 191.216,237.471 191.157 C 238.103 191.098,241.544 190.942,245.117 190.809 C 258.756 190.303,266.309 179.385,259.444 170.099 C 256.440 166.036,258.625 163.961,263.057 166.667 C 264.650 167.639,265.133 167.555,266.200 166.117 C 270.145 160.799,261.352 157.620,256.642 162.662 C 254.230 165.244,253.808 165.373,250.638 164.498 C 248.240 163.836,245.952 163.866,242.925 164.598 C 237.868 165.823,237.109 165.897,231.954 165.681 L 228.046 165.517 228.046 157.255 L 228.046 148.993 231.034 150.815 C 241.151 156.983,255.229 149.051,256.999 136.185 C 259.104 120.877,249.445 110.400,236.645 114.108 M262.069 115.862 C 262.069 117.351,262.682 117.701,265.287 117.701 L 268.506 117.701 268.506 132.230 C 268.506 147.614,268.157 148.966,264.184 148.966 C 262.917 148.966,262.069 149.519,262.069 150.345 C 262.069 151.429,263.343 151.724,268.017 151.724 C 272.940 151.724,273.874 151.963,273.433 153.111 C 272.417 155.760,275.671 159.218,278.886 158.905 C 284.737 158.334,285.464 149.703,279.710 149.137 L 276.782 148.849 276.782 131.436 L 276.782 114.023 269.425 114.023 C 262.682 114.023,262.069 114.176,262.069 115.862 M147.019 118.281 C 153.737 122.986,153.248 145.197,146.346 148.891 C 136.581 154.117,128.677 140.739,132.517 125.486 C 134.458 117.781,141.388 114.337,147.019 118.281 M359.879 119.797 C 363.712 124.953,361.368 137.207,356.305 138.477 C 348.892 140.338,344.125 131.104,347.628 121.669 C 349.700 116.086,356.362 115.068,359.879 119.797 M195.769 119.844 C 199.766 123.158,201.152 137.474,198.100 143.906 C 194.014 152.517,183.835 151.338,181.229 141.952 C 177.163 127.308,186.906 112.494,195.769 119.844 M243.517 120.006 C 250.107 125.551,249.500 143.589,242.559 148.450 C 237.140 152.245,230.637 148.282,228.950 140.156 C 225.936 125.639,235.118 112.938,243.517 120.006 M365.840 156.412 C 370.935 158.188,369.071 162.732,362.498 164.558 C 351.779 167.535,340.708 163.222,343.875 157.303 C 345.053 155.102,360.307 154.483,365.840 156.412 M269.425 165.977 C 269.425 166.897,270.345 167.356,272.184 167.356 L 274.943 167.356 274.943 180.614 C 274.943 195.593,274.699 196.782,271.626 196.782 C 270.283 196.782,269.425 197.319,269.425 198.161 C 269.425 199.300,271.120 199.540,279.157 199.540 C 288.452 199.540,292.837 197.798,285.676 196.950 L 283.218 196.659 283.218 180.629 L 283.218 164.598 276.322 164.598 C 270.805 164.598,269.425 164.874,269.425 165.977 M292.414 165.977 C 292.414 166.897,293.333 167.356,295.172 167.356 L 297.931 167.356 297.931 180.614 C 297.931 195.593,297.687 196.782,294.614 196.782 C 293.271 196.782,292.414 197.319,292.414 198.161 C 292.414 199.308,294.210 199.540,303.065 199.540 C 313.567 199.540,318.240 197.687,309.584 196.956 L 306.207 196.671 306.210 186.381 C 306.215 172.166,310.092 165.506,314.873 171.501 C 318.741 176.352,324.831 172.036,321.434 166.852 C 318.847 162.902,310.226 164.393,306.722 169.395 C 305.312 171.408,305.287 171.385,305.287 168.021 L 305.287 164.598 298.851 164.598 C 293.742 164.598,292.414 164.882,292.414 165.977 M251.582 169.292 C 256.115 174.301,252.735 186.799,246.682 187.407 C 239.866 188.091,236.944 172.188,243.126 168.060 C 245.189 166.683,249.832 167.359,251.582 169.292 M257.871 204.115 C 263.136 206.117,258.537 210.999,250.434 212.011 C 241.618 213.113,235.259 209.855,236.793 205.023 C 237.441 202.981,253.114 202.307,257.871 204.115 "></path>
    </g>
</svg>